<svg xmlns="http://www.w3.org/2000/svg" viewBox="0 0 760 200" role="img" aria-label="The Supply Chain Project">
  <g transform="translate(0,-10)">
  <g transform="rotate(0 120 120)" fill="#FFFFFF"><circle cx="120" cy="34" r="12.5"/><path d="M104,52 Q120,45 136,52 L129,84 Q120,90 111,84 Z"/></g>
  <g transform="rotate(30 120 120)" fill="#FFFFFF"><circle cx="120" cy="34" r="12.5"/><path d="M104,52 Q120,45 136,52 L129,84 Q120,90 111,84 Z"/></g>
  <g transform="rotate(60 120 120)" fill="#FFFFFF"><circle cx="120" cy="34" r="12.5"/><path d="M104,52 Q120,45 136,52 L129,84 Q120,90 111,84 Z"/></g>
  <g transform="rotate(90 120 120)" fill="#FFFFFF"><circle cx="120" cy="34" r="12.5"/><path d="M104,52 Q120,45 136,52 L129,84 Q120,90 111,84 Z"/></g>
  <g transform="rotate(120 120 120)" fill="#FFFFFF"><circle cx="120" cy="34" r="12.5"/><path d="M104,52 Q120,45 136,52 L129,84 Q120,90 111,84 Z"/></g>
  <g transform="rotate(150 120 120)" fill="#FFFFFF"><circle cx="120" cy="34" r="12.5"/><path d="M104,52 Q120,45 136,52 L129,84 Q120,90 111,84 Z"/></g>
  <g transform="rotate(180 120 120)" fill="#FFFFFF"><circle cx="120" cy="34" r="12.5"/><path d="M104,52 Q120,45 136,52 L129,84 Q120,90 111,84 Z"/></g>
  <g transform="rotate(210 120 120)" fill="#FFFFFF"><circle cx="120" cy="34" r="12.5"/><path d="M104,52 Q120,45 136,52 L129,84 Q120,90 111,84 Z"/></g>
  <g transform="rotate(240 120 120)" fill="#FFFFFF"><circle cx="120" cy="34" r="12.5"/><path d="M104,52 Q120,45 136,52 L129,84 Q120,90 111,84 Z"/></g>
  <g transform="rotate(270 120 120)" fill="#FFFFFF"><circle cx="120" cy="34" r="12.5"/><path d="M104,52 Q120,45 136,52 L129,84 Q120,90 111,84 Z"/></g>
  <g transform="rotate(300 120 120)" fill="#FFFFFF"><circle cx="120" cy="34" r="12.5"/><path d="M104,52 Q120,45 136,52 L129,84 Q120,90 111,84 Z"/></g>
  <g transform="rotate(330 120 120)" fill="#FFFFFF"><circle cx="120" cy="34" r="12.5"/><path d="M104,52 Q120,45 136,52 L129,84 Q120,90 111,84 Z"/></g>
</g>
  <text x="230" y="118" font-family="Nunito, 'Segoe UI', sans-serif" font-weight="900" font-size="72" letter-spacing="-2" fill="#FFFFFF">the supply<tspan fill="#FFFFFF">·</tspan>chain project</text>
</svg>