<svg xmlns="http://www.w3.org/2000/svg" viewBox="0 0 240 240" role="img" aria-label="The Supply Chain Project hub mark">
  <g transform="rotate(0 120 120)" fill="#17323F"><circle cx="120" cy="34" r="12.5"/><path d="M104,52 Q120,45 136,52 L129,84 Q120,90 111,84 Z"/></g>
  <g transform="rotate(30 120 120)" fill="#17323F"><circle cx="120" cy="34" r="12.5"/><path d="M104,52 Q120,45 136,52 L129,84 Q120,90 111,84 Z"/></g>
  <g transform="rotate(60 120 120)" fill="#17323F"><circle cx="120" cy="34" r="12.5"/><path d="M104,52 Q120,45 136,52 L129,84 Q120,90 111,84 Z"/></g>
  <g transform="rotate(90 120 120)" fill="#17323F"><circle cx="120" cy="34" r="12.5"/><path d="M104,52 Q120,45 136,52 L129,84 Q120,90 111,84 Z"/></g>
  <g transform="rotate(120 120 120)" fill="#17323F"><circle cx="120" cy="34" r="12.5"/><path d="M104,52 Q120,45 136,52 L129,84 Q120,90 111,84 Z"/></g>
  <g transform="rotate(150 120 120)" fill="#17323F"><circle cx="120" cy="34" r="12.5"/><path d="M104,52 Q120,45 136,52 L129,84 Q120,90 111,84 Z"/></g>
  <g transform="rotate(180 120 120)" fill="#17323F"><circle cx="120" cy="34" r="12.5"/><path d="M104,52 Q120,45 136,52 L129,84 Q120,90 111,84 Z"/></g>
  <g transform="rotate(210 120 120)" fill="#17323F"><circle cx="120" cy="34" r="12.5"/><path d="M104,52 Q120,45 136,52 L129,84 Q120,90 111,84 Z"/></g>
  <g transform="rotate(240 120 120)" fill="#17323F"><circle cx="120" cy="34" r="12.5"/><path d="M104,52 Q120,45 136,52 L129,84 Q120,90 111,84 Z"/></g>
  <g transform="rotate(270 120 120)" fill="#17323F"><circle cx="120" cy="34" r="12.5"/><path d="M104,52 Q120,45 136,52 L129,84 Q120,90 111,84 Z"/></g>
  <g transform="rotate(300 120 120)" fill="#17323F"><circle cx="120" cy="34" r="12.5"/><path d="M104,52 Q120,45 136,52 L129,84 Q120,90 111,84 Z"/></g>
  <g transform="rotate(330 120 120)" fill="#17323F"><circle cx="120" cy="34" r="12.5"/><path d="M104,52 Q120,45 136,52 L129,84 Q120,90 111,84 Z"/></g>
</svg>